<?xml version="1.0" encoding="UTF-8" standalone="no"?>
<!-- Created with Inkscape (http://www.inkscape.org/) -->

<svg
   width="130.69354mm"
   height="99.806084mm"
   viewBox="0 0 130.69354 99.806084"
   version="1.1"
   id="svg2865"
   inkscape:export-filename="test01.svg"
   inkscape:export-xdpi="200"
   inkscape:export-ydpi="200"
   xmlns:inkscape="http://www.inkscape.org/namespaces/inkscape"
   xmlns:sodipodi="http://sodipodi.sourceforge.net/DTD/sodipodi-0.dtd"
   xmlns="http://www.w3.org/2000/svg"
   xmlns:svg="http://www.w3.org/2000/svg">
  <sodipodi:namedview
     id="namedview2867"
     pagecolor="#505050"
     bordercolor="#eeeeee"
     borderopacity="1"
     inkscape:showpageshadow="0"
     inkscape:pageopacity="0"
     inkscape:pagecheckerboard="0"
     inkscape:deskcolor="#505050"
     inkscape:document-units="mm"
     showgrid="false" />
  <defs
     id="defs2862" />
  <g
     inkscape:label="Layer 1"
     inkscape:groupmode="layer"
     id="layer1"
     transform="translate(-33.767834,-32.502418)">
    <polyline
       class="cls-3"
       points="104.97 71.95 147.36 282.96 158.04 286.32 299.61 195.42"
       id="polyline88"
       transform="matrix(0.26458333,0,0,0.26458333,16.379401,27.356256)"
       inkscape:export-filename="../Desktop/polyline88.svg"
       inkscape:export-xdpi="200"
       inkscape:export-ydpi="200"
       style="fill:none;stroke:#ffffff;stroke-width:52px;stroke-miterlimit:10" />
    <path
       class="cls-3"
       d="m 71.830776,76.264485 28.273374,45.659145 c 0,0 37.57083,15.04421 52.53831,-22.526624 14.96748,-37.570833 -21.971,-56.017584 -21.971,-56.017584 l -29.73652,77.409148"
       id="path90"
       style="fill:none;stroke:#ffffff;stroke-width:13.7583px;stroke-miterlimit:10" />
    <circle
       class="cls-2"
       cx="44.152714"
       cy="46.393024"
       r="3.5057292"
       id="circle92"
       style="fill:#ffffff;stroke:#ffffff;stroke-width:13.7583px;stroke-miterlimit:10" />
    <circle
       class="cls-2"
       cx="55.955776"
       cy="104.23359"
       r="3.5057292"
       id="circle94"
       style="fill:#ffffff;stroke:#ffffff;stroke-width:13.7583px;stroke-miterlimit:10" />
    <circle
       class="cls-2"
       cx="79.728584"
       cy="88.678734"
       r="3.5057292"
       id="circle96"
       style="fill:#ffffff;stroke:#ffffff;stroke-width:13.7583px;stroke-miterlimit:10" />
    <circle
       class="cls-2"
       cx="95.717354"
       cy="78.531967"
       r="3.5057292"
       id="circle98"
       style="fill:#ffffff;stroke:#ffffff;stroke-width:13.7583px;stroke-miterlimit:10" />
    <circle
       class="cls-2"
       cx="71.83078"
       cy="76.264488"
       r="3.5057292"
       id="circle100"
       style="fill:#ffffff;stroke:#ffffff;stroke-width:13.7583px;stroke-miterlimit:10" />
    <circle
       class="cls-2"
       cx="100.1015"
       cy="121.92363"
       r="3.5057292"
       id="circle102"
       style="fill:#ffffff;stroke:#ffffff;stroke-width:13.7583px;stroke-miterlimit:10" />
    <circle
       class="cls-2"
       cx="131.39906"
       cy="42.887299"
       r="3.5057292"
       id="circle104"
       style="fill:#ffffff;stroke:#ffffff;stroke-width:13.7583px;stroke-miterlimit:10" />
    <circle
       class="cls-2"
       cx="150.57076"
       cy="61.495441"
       r="3.5057292"
       id="circle106"
       style="fill:#ffffff;stroke:#ffffff;stroke-width:13.7583px;stroke-miterlimit:10" />
    <circle
       class="cls-2"
       cx="154.07651"
       cy="95.888626"
       r="3.5057292"
       id="circle108"
       style="fill:#ffffff;stroke:#ffffff;stroke-width:13.7583px;stroke-miterlimit:10" />
    <circle
       class="cls-2"
       cx="132.30658"
       cy="121.92363"
       r="3.5057292"
       id="circle110"
       style="fill:#ffffff;stroke:#ffffff;stroke-width:13.7583px;stroke-miterlimit:10" />
    <g
       id="g124"
       transform="matrix(0.26458333,0,0,0.26458333,16.379401,27.356256)">
      <path
         class="cls-7"
         d="m 139.1,352.94 1.52,0.3 c 0,0.08 0.32,0.15 0.96,0.2 0,0.13 0.25,0.21 0.76,0.25 0,0.09 0.24,0.18 0.71,0.25 0,0.08 0.22,0.18 0.66,0.3 l 0.15,0.3 c 0,0.19 -0.1,0.6 -0.3,1.22 l -0.25,0.96 -0.51,1.78 c -0.18,0.74 -0.43,1.57 -0.76,2.49 0,0.17 -0.17,0.78 -0.51,1.83 -0.47,1.36 -0.74,2.26 -0.81,2.69 -0.08,0 -0.19,0.3 -0.3,0.86 -0.27,0.68 -0.42,1.17 -0.46,1.47 -0.08,0 -0.18,0.27 -0.3,0.81 l -1.57,4.47 -0.81,2.18 c -0.11,0.51 -0.25,0.76 -0.41,0.76 l -3.61,0.3 c -0.3,0.17 -0.78,0.25 -1.42,0.25 0,0.09 -0.37,0.19 -1.12,0.3 -0.03,0.1 -0.14,0.15 -0.3,0.15 l -0.15,-0.15 v -0.2 l 0.1,-1.27 -0.05,-0.05 c 0.1,-0.61 0.15,-1.73 0.15,-3.35 -0.14,-4.74 -0.28,-7.11 -0.41,-7.11 v -0.46 l -0.05,-0.25 h -0.05 l -0.51,1.47 c -0.06,0 -0.11,0.22 -0.15,0.66 -0.13,0.03 -0.21,0.3 -0.25,0.81 -0.09,0 -0.19,0.29 -0.3,0.86 -0.09,0.02 -0.16,0.32 -0.2,0.91 -0.1,0 -0.2,0.36 -0.3,1.07 -0.08,0 -0.16,0.36 -0.25,1.07 -0.08,0 -0.16,0.41 -0.25,1.22 -0.08,0 -0.16,0.44 -0.25,1.32 -0.08,0 -0.16,0.51 -0.25,1.52 -0.09,0.15 -0.18,0.74 -0.25,1.78 l -0.36,0.15 c -0.73,-0.14 -1.64,-0.2 -2.74,-0.2 -1.1,0 -1.92,0.07 -2.54,0.2 -0.27,0 -0.46,-0.47 -0.56,-1.42 -0.08,0 -0.16,-0.34 -0.25,-1.02 -0.07,0 -0.15,-0.36 -0.25,-1.07 -0.07,0 -0.15,-0.41 -0.25,-1.22 -0.08,0 -0.16,-0.41 -0.25,-1.22 -0.08,0 -0.14,-0.39 -0.2,-1.17 -0.1,-0.08 -0.2,-0.6 -0.3,-1.57 -0.08,-0.12 -0.17,-0.66 -0.25,-1.62 -0.08,0 -0.16,-0.47 -0.25,-1.42 -0.09,0 -0.16,-0.54 -0.2,-1.62 -0.08,0 -0.19,-0.74 -0.3,-2.23 -0.1,-0.61 -0.24,-2.01 -0.41,-4.21 v -1.02 l -0.05,-1.73 c 0,-0.24 0.41,-0.41 1.22,-0.51 0,-0.07 0.34,-0.15 1.02,-0.25 0,-0.08 0.42,-0.16 1.27,-0.25 0,-0.08 0.42,-0.16 1.27,-0.25 0,-0.1 0.29,-0.15 0.86,-0.15 h 0.25 c 0.1,0.03 0.15,0.14 0.15,0.3 l 0.25,5.59 c 0.17,0.87 0.25,2.02 0.25,3.45 0.09,0.25 0.19,1.39 0.3,3.4 0.08,0 0.15,0.78 0.2,2.34 l 0.05,0.05 h 0.05 c 0.17,-0.47 0.27,-1.04 0.3,-1.73 0.17,-0.32 0.25,-0.74 0.25,-1.27 0.09,0 0.19,-0.39 0.3,-1.17 0.08,-0.15 0.17,-0.49 0.25,-1.02 l 0.71,-2.54 c 0.1,-0.19 0.2,-0.55 0.3,-1.07 0.09,0 0.16,-0.24 0.2,-0.71 0.14,-0.04 0.2,-0.25 0.2,-0.61 0.11,-0.08 0.23,-0.36 0.36,-0.86 l 0.81,-1.83 c 0.47,-0.21 1.26,-0.45 2.39,-0.71 l 0.96,-0.2 c 0,-0.08 0.49,-0.15 1.47,-0.2 0,-0.06 0.08,-0.09 0.25,-0.1 h 0.05 c 0.09,0 0.18,0.44 0.25,1.32 0.08,0 0.16,0.9 0.25,2.69 0.1,0.4 0.15,0.91 0.15,1.52 v 0.61 c 0,0.98 0.08,2.67 0.25,5.08 l -0.05,0.36 0.05,1.07 -0.05,1.02 0.15,0.1 0.56,-1.93 1.02,-3.4 0.25,-0.81 0.25,-0.91 c 0,-0.18 0.08,-0.47 0.25,-0.86 l 0.51,-1.93 0.66,-2.39 0.2,-0.91 c 0.08,0 0.16,-0.32 0.25,-0.96 0.08,0 0.14,-0.29 0.2,-0.86 l 0.15,-0.1 z"
         id="path112"
         style="fill:#ffffff;stroke:#ffffff;stroke-width:7px;stroke-miterlimit:10" />
      <path
         class="cls-7"
         d="m 153.44,360.52 1.41,0.04 0.11,0.14 c -0.23,0.66 -0.37,1.26 -0.42,1.79 -0.06,0.18 -0.12,0.63 -0.18,1.37 l -0.04,0.04 c 0,0.14 -0.07,0.21 -0.21,0.21 v 0.04 l -0.11,-0.04 -2.43,0.04 h -0.35 c -1.69,0.08 -2.53,0.18 -2.53,0.28 l -0.18,2.43 0.14,0.04 c 1.15,-0.07 2.51,-0.12 4.08,-0.14 l 0.14,0.21 c 0,0.29 -0.07,0.82 -0.21,1.58 -0.05,1.1 -0.14,1.65 -0.28,1.65 h -0.07 c -1.14,0 -2.41,0.04 -3.83,0.11 l -0.11,0.04 -0.04,1.62 c 0,0.56 0.23,0.96 0.7,1.2 0.55,0.16 0.93,0.25 1.12,0.25 h 1.34 c 2.36,-0.12 3.8,-0.22 4.32,-0.32 h 0.11 l 0.04,0.04 v 0.11 c -0.12,0.17 -0.18,0.37 -0.18,0.6 -0.08,0 -0.13,0.18 -0.18,0.53 -0.05,0 -0.12,0.2 -0.21,0.6 -0.04,0 -0.09,0.22 -0.18,0.67 -0.05,0 -0.11,0.18 -0.18,0.53 l -0.14,0.32 c -0.96,0.14 -2.96,0.21 -6.01,0.21 -1.34,-0.02 -2,-0.09 -2,-0.21 -0.29,0 -0.49,-0.06 -0.6,-0.18 -0.29,-0.07 -0.63,-0.32 -1.02,-0.74 -0.25,-0.37 -0.41,-0.74 -0.49,-1.12 -0.08,0 -0.16,-0.8 -0.25,-2.39 v -0.35 l 0.04,-0.28 -0.04,-0.21 c 0.09,-4.14 0.26,-7.14 0.49,-9 v -0.49 c 0,-0.28 0.33,-0.43 0.98,-0.46 0.08,-0.09 0.39,-0.14 0.91,-0.14 0.15,-0.09 0.69,-0.17 1.62,-0.25 l 2.74,-0.28 2.14,-0.04 z"
         id="path114"
         style="fill:#ffffff;stroke:#ffffff;stroke-width:7px;stroke-miterlimit:10" />
      <path
         class="cls-7"
         d="m 162.35,360.41 h 0.6 c 0.92,0 1.92,0.14 2.99,0.42 0,0.06 0.15,0.11 0.46,0.14 l 0.7,0.39 c 0.33,0.23 0.6,0.46 0.81,0.67 l 0.39,0.6 0.07,0.32 c 0.08,0 0.12,0.15 0.14,0.46 v 0.7 l -0.18,0.53 c 0,0.08 -0.06,0.22 -0.18,0.42 -0.36,0.61 -0.96,1.2 -1.79,1.76 l -0.63,0.42 0.04,0.04 h 0.32 c 0.85,0.12 1.52,0.26 2,0.42 0.05,0.05 0.2,0.11 0.46,0.18 0.71,0.42 1.12,0.8 1.23,1.12 0.21,0.16 0.38,0.64 0.49,1.44 v 0.21 c -0.14,0.95 -0.39,1.68 -0.74,2.18 -0.67,0.86 -1.28,1.43 -1.83,1.72 -0.54,0.36 -1.04,0.62 -1.48,0.77 0,0.07 -0.15,0.12 -0.46,0.14 -0.04,0.07 -0.21,0.15 -0.53,0.25 l -0.53,0.14 c 0,0 -0.19,0.11 -0.56,0.18 -0.08,0.07 -0.8,0.22 -2.18,0.46 l -1.41,0.18 h -2.36 c -0.45,0 -0.86,-0.08 -1.23,-0.25 0.16,-1.18 0.25,-1.97 0.25,-2.39 l -0.04,-0.04 v -0.04 c 0.09,-0.61 0.14,-1.34 0.14,-2.18 v -1.27 c 0,-1.22 -0.05,-2.09 -0.14,-2.6 l 0.04,-0.04 c 0,-0.72 -0.09,-1.94 -0.28,-3.66 -0.06,-0.12 -0.11,-0.46 -0.14,-1.02 -0.12,-0.25 -0.18,-0.54 -0.18,-0.88 -0.05,0 -0.1,-0.14 -0.14,-0.42 v -0.14 c 0.05,-0.11 0.33,-0.22 0.84,-0.35 0,-0.06 0.15,-0.11 0.46,-0.14 0,-0.06 0.26,-0.14 0.77,-0.25 l 1.58,-0.35 c 0.16,-0.05 0.9,-0.13 2.21,-0.25 z m -1.76,3.83 c 0.11,0.19 0.19,0.73 0.25,1.62 l 0.14,0.95 h 0.04 c 0.64,0 1.34,-0.18 2.07,-0.53 0.45,-0.24 0.76,-0.45 0.91,-0.63 0.16,-0.16 0.29,-0.38 0.39,-0.67 v -0.39 c 0,-0.28 -0.3,-0.52 -0.91,-0.74 l -0.35,-0.04 h -1.12 c -0.94,0.13 -1.41,0.28 -1.41,0.42 z m 0.53,6.15 v 1.09 l -0.07,0.88 0.04,0.14 -0.11,0.53 0.04,0.04 h 0.6 c 1.08,-0.23 1.81,-0.45 2.18,-0.67 0.37,-0.13 0.72,-0.33 1.05,-0.6 0.38,-0.28 0.62,-0.61 0.7,-0.98 l -0.04,-0.04 v -0.04 l 0.04,-0.14 c 0,-0.3 -0.48,-0.51 -1.44,-0.63 h -1.05 l -1.55,0.21 c -0.26,0.08 -0.39,0.15 -0.39,0.21 z"
         id="path116"
         style="fill:#ffffff;stroke:#ffffff;stroke-width:7px;stroke-miterlimit:10" />
      <path
         class="cls-7"
         d="m 182.21,354.29 2.29,0.05 2.15,0.34 c 0,0 0.33,0.13 0.98,0.24 0,0.04 0.24,0.12 0.73,0.24 0,0.08 0.23,0.15 0.68,0.2 0.03,0.09 0.49,0.32 1.37,0.68 0.02,0.08 0.28,0.26 0.78,0.54 0,0.11 0.1,0.2 0.29,0.24 0,0.07 0.16,0.21 0.49,0.44 0.94,1.12 1.46,1.98 1.56,2.59 0.07,0.07 0.2,0.52 0.39,1.37 l 0.05,1.37 c 0,0.78 -0.1,1.6 -0.29,2.44 -0.35,1.19 -0.87,2.34 -1.56,3.47 -0.32,0.53 -0.58,0.89 -0.78,1.07 0,0.2 -0.78,1.08 -2.34,2.64 -0.55,0.5 -1.12,0.96 -1.71,1.37 -0.02,0.08 -0.26,0.24 -0.73,0.49 0,0.09 -0.13,0.15 -0.39,0.2 0,0.1 -0.33,0.31 -0.98,0.63 -0.26,0.08 -0.39,0.16 -0.39,0.24 -0.12,0 -0.35,0.1 -0.68,0.29 l -1.22,0.49 c -0.61,0.2 -1.03,0.29 -1.27,0.29 0,0.11 -0.42,0.2 -1.27,0.29 0,0.1 -0.23,0.15 -0.68,0.15 h -3.66 c -1.24,-0.06 -1.87,-0.2 -1.9,-0.44 0.13,-1.55 0.2,-2.82 0.2,-3.81 v -5.37 l -0.1,-6.15 -0.05,-0.05 h -0.05 l -2,0.54 -0.83,0.24 c 0,0.07 -0.08,0.12 -0.24,0.15 l -0.15,-0.15 c 0.13,-0.72 0.2,-1.25 0.2,-1.61 v -0.83 l -0.24,-2.59 c 0.28,-0.23 0.55,-0.34 0.83,-0.34 0,-0.1 0.23,-0.2 0.68,-0.29 0,-0.07 0.24,-0.15 0.73,-0.24 0.06,-0.07 0.59,-0.22 1.61,-0.44 0.11,-0.1 0.51,-0.2 1.22,-0.29 0,-0.11 0.37,-0.17 1.12,-0.2 0.08,-0.13 0.52,-0.2 1.32,-0.2 0.23,-0.1 0.68,-0.18 1.37,-0.24 l 2.49,-0.05 z m -2.83,5.66 c 0.06,0.07 0.11,0.34 0.15,0.83 l -0.05,0.05 0.05,0.24 v 8.59 l -0.05,1.46 h 0.05 c 1.07,-0.13 1.78,-0.28 2.15,-0.44 0.2,0 0.46,-0.08 0.78,-0.24 0.1,0 0.46,-0.16 1.07,-0.49 1.03,-0.5 2,-1.33 2.93,-2.49 0.49,-0.55 0.91,-1.4 1.27,-2.54 0,-0.42 0.03,-0.72 0.1,-0.93 0,-1.42 -0.37,-2.41 -1.12,-2.98 -0.4,-0.49 -1.13,-0.86 -2.2,-1.12 0,-0.06 -0.83,-0.18 -2.49,-0.34 -1.76,0.09 -2.64,0.22 -2.64,0.39 z"
         id="path118"
         style="fill:#ffffff;stroke:#ffffff;stroke-width:7px;stroke-miterlimit:10" />
      <path
         class="cls-7"
         d="m 201.91,354.05 0.15,0.2 -0.15,8.59 0.05,0.05 h 0.63 c 1.43,-0.16 2.54,-0.24 3.32,-0.24 1.66,-0.09 2.49,-0.2 2.49,-0.34 v -1.66 l 0.15,-5.47 v -0.78 c 0,-0.18 0.06,-0.29 0.2,-0.34 l 2.93,0.05 c 1,0.07 1.68,0.18 2.05,0.34 l 0.05,4.98 v 1.12 c 0.16,5.38 0.31,8.52 0.44,9.42 l -0.05,0.05 v 0.05 l 0.34,5.22 v 0.39 l 0.05,0.29 c 0,0.18 -0.39,0.31 -1.17,0.39 -0.31,0 -0.99,0.1 -2.05,0.29 l -1.76,0.33 c -0.12,0.1 -0.25,0.15 -0.39,0.15 -0.26,0 -0.39,-0.22 -0.39,-0.67 l 0.05,-0.05 -0.29,-6.1 v -2.69 l -0.1,-0.29 -0.49,0.05 h -2.05 c -1.01,0 -1.97,0.08 -2.88,0.24 l -0.15,-0.05 -0.44,0.05 h -0.34 l -0.1,0.1 v 5.18 l 0.05,3.42 -0.2,0.1 -0.54,-0.05 -0.05,0.05 h -0.05 c -1.03,-0.16 -2.46,-0.24 -4.3,-0.24 h -0.44 l -0.15,-0.15 v -0.83 c 0.16,-1.26 0.28,-2.51 0.34,-3.76 l -0.05,-0.05 c 0.13,-0.79 0.2,-1.59 0.2,-2.39 v -0.68 l -0.05,-0.24 c -0.89,0.03 -1.46,0.1 -1.71,0.2 h -0.05 c -0.1,-0.03 -0.15,-0.13 -0.15,-0.29 v -0.44 c 0,-1.27 -0.08,-2.42 -0.24,-3.47 0,-0.29 0.52,-0.44 1.56,-0.44 0,-0.06 0.2,-0.1 0.59,-0.1 v -0.05 l 0.05,-0.2 -0.2,-8.25 -0.05,-0.2 c 0,-0.36 0.6,-0.54 1.81,-0.54 0,-0.14 1.17,-0.22 3.52,-0.24 z"
         id="path120"
         style="fill:#ffffff;stroke:#ffffff;stroke-width:7px;stroke-miterlimit:10" />
      <path
         class="cls-7"
         d="m 232.13,354.01 0.05,0.05 0.49,-0.05 h 1.12 c 0.1,0 0.15,0.07 0.15,0.2 -0.33,1.28 -0.54,2.32 -0.63,3.12 -0.06,0 -0.11,0.49 -0.15,1.46 l -0.39,0.44 h -0.54 l -2.34,0.34 c 0,0.09 -0.41,0.15 -1.22,0.2 -0.42,0.13 -0.63,0.24 -0.63,0.34 l 0.05,0.05 v 0.05 c -0.2,0.62 -0.29,1.4 -0.29,2.34 -0.13,0.47 -0.28,2.29 -0.44,5.47 -0.2,2.68 -0.29,5.49 -0.29,8.45 -0.46,0.26 -1.03,0.39 -1.71,0.39 -0.39,0.16 -0.9,0.24 -1.51,0.24 -0.14,0.12 -0.74,0.2 -1.81,0.24 0,0.06 -0.34,0.12 -1.03,0.2 l -0.1,-0.2 0.29,-2.34 c 0.13,-0.55 0.2,-1.06 0.2,-1.51 0.16,-0.83 0.26,-1.74 0.29,-2.73 0.16,-0.45 0.24,-1.15 0.24,-2.1 0.29,-2.69 0.44,-4.58 0.44,-5.66 l 0.1,-1.32 -0.05,-0.15 0.15,-0.98 -0.05,-0.05 h -0.05 c 0,0.1 -0.54,0.18 -1.61,0.24 -0.11,0.13 -0.54,0.2 -1.27,0.2 -0.35,0.15 -0.85,0.27 -1.51,0.34 l -2.15,0.59 h -0.24 l -0.1,-0.1 v -0.1 c 0.13,-0.37 0.21,-0.91 0.24,-1.61 0.13,-0.35 0.21,-1.02 0.24,-2 0.16,-0.45 0.24,-1.16 0.24,-2.15 0.15,-0.29 0.68,-0.44 1.56,-0.44 0.54,-0.16 1.31,-0.26 2.29,-0.29 0,-0.1 0.73,-0.18 2.2,-0.24 0.5,-0.12 1.42,-0.22 2.78,-0.29 0.15,-0.08 1.01,-0.15 2.59,-0.2 0.33,-0.12 1.39,-0.2 3.17,-0.24 l 1.22,-0.2 z"
         id="path122"
         style="fill:#ffffff;stroke:#ffffff;stroke-width:7px;stroke-miterlimit:10" />
    </g>
    <g
       id="g150"
       transform="matrix(0.26458333,0,0,0.26458333,16.379401,27.356256)">
      <polyline
         class="cls-1"
         points="104.55 71.95 149.16 290.56 299.45 193.42"
         id="polyline126"
         style="fill:none;stroke:#1d1d1b;stroke-width:19px;stroke-miterlimit:10" />
      <path
         class="cls-1"
         d="m 209.16,184.85 106.86,172.57 c 0,0 142,56.86 198.57,-85.14 56.57,-142 -83.04,-211.72 -83.04,-211.72 L 319.16,353.13"
         id="path128"
         style="fill:none;stroke:#1d1d1b;stroke-width:19px;stroke-miterlimit:10" />
      <circle
         class="cls-9"
         cx="104.55"
         cy="71.949997"
         r="13.25"
         id="circle130"
         style="fill:#ffffff;stroke:#1d1d1b;stroke-width:10px;stroke-miterlimit:10" />
      <circle
         class="cls-9"
         cx="149.16"
         cy="290.56"
         r="13.25"
         id="circle132"
         style="fill:#ffffff;stroke:#1d1d1b;stroke-width:10px;stroke-miterlimit:10" />
      <circle
         class="cls-9"
         cx="239.02"
         cy="231.77"
         r="13.25"
         id="circle134"
         style="fill:#ffffff;stroke:#1d1d1b;stroke-width:10px;stroke-miterlimit:10" />
      <circle
         class="cls-9"
         cx="299.45001"
         cy="193.42"
         r="13.25"
         id="circle136"
         style="fill:#ffffff;stroke:#1d1d1b;stroke-width:10px;stroke-miterlimit:10" />
      <circle
         class="cls-9"
         cx="209.16"
         cy="184.85001"
         r="13.25"
         id="circle138"
         style="fill:#ffffff;stroke:#1d1d1b;stroke-width:10px;stroke-miterlimit:10" />
      <circle
         class="cls-9"
         cx="316.01999"
         cy="357.42001"
         r="13.25"
         id="circle140"
         style="fill:#ffffff;stroke:#1d1d1b;stroke-width:10px;stroke-miterlimit:10" />
      <circle
         class="cls-9"
         cx="434.29999"
         cy="58.700001"
         r="13.25"
         id="circle142"
         style="fill:#ffffff;stroke:#1d1d1b;stroke-width:10px;stroke-miterlimit:10" />
      <circle
         class="cls-9"
         cx="506.76001"
         cy="129.03"
         r="13.25"
         id="circle144"
         style="fill:#ffffff;stroke:#1d1d1b;stroke-width:10px;stroke-miterlimit:10" />
      <circle
         class="cls-9"
         cx="520.01001"
         cy="259.01999"
         r="13.25"
         id="circle146"
         style="fill:#ffffff;stroke:#1d1d1b;stroke-width:10px;stroke-miterlimit:10" />
      <circle
         class="cls-9"
         cx="437.73001"
         cy="357.42001"
         r="13.25"
         id="circle148"
         style="fill:#ffffff;stroke:#1d1d1b;stroke-width:10px;stroke-miterlimit:10" />
    </g>
    <g
       id="g164"
       transform="matrix(0.26458333,0,0,0.26458333,16.379401,27.356256)">
      <path
         d="m 139.1,352.94 1.52,0.3 c 0,0.08 0.32,0.15 0.96,0.2 0,0.13 0.25,0.21 0.76,0.25 0,0.09 0.24,0.18 0.71,0.25 0,0.08 0.22,0.18 0.66,0.3 l 0.15,0.3 c 0,0.19 -0.1,0.6 -0.3,1.22 l -0.25,0.96 -0.51,1.78 c -0.18,0.74 -0.43,1.57 -0.76,2.49 0,0.17 -0.17,0.78 -0.51,1.83 -0.47,1.36 -0.74,2.26 -0.81,2.69 -0.08,0 -0.19,0.3 -0.3,0.86 -0.27,0.68 -0.42,1.17 -0.46,1.47 -0.08,0 -0.18,0.27 -0.3,0.81 l -1.57,4.47 -0.81,2.18 c -0.11,0.51 -0.25,0.76 -0.41,0.76 l -3.61,0.3 c -0.3,0.17 -0.78,0.25 -1.42,0.25 0,0.09 -0.37,0.19 -1.12,0.3 -0.03,0.1 -0.14,0.15 -0.3,0.15 l -0.15,-0.15 v -0.2 l 0.1,-1.27 -0.05,-0.05 c 0.1,-0.61 0.15,-1.73 0.15,-3.35 -0.14,-4.74 -0.28,-7.11 -0.41,-7.11 v -0.46 l -0.05,-0.25 h -0.05 l -0.51,1.47 c -0.06,0 -0.11,0.22 -0.15,0.66 -0.13,0.03 -0.21,0.3 -0.25,0.81 -0.09,0 -0.19,0.29 -0.3,0.86 -0.09,0.02 -0.16,0.32 -0.2,0.91 -0.1,0 -0.2,0.36 -0.3,1.07 -0.08,0 -0.16,0.36 -0.25,1.07 -0.08,0 -0.16,0.41 -0.25,1.22 -0.08,0 -0.16,0.44 -0.25,1.32 -0.08,0 -0.16,0.51 -0.25,1.52 -0.09,0.15 -0.18,0.74 -0.25,1.78 l -0.36,0.15 c -0.73,-0.14 -1.64,-0.2 -2.74,-0.2 -1.1,0 -1.92,0.07 -2.54,0.2 -0.27,0 -0.46,-0.47 -0.56,-1.42 -0.08,0 -0.16,-0.34 -0.25,-1.02 -0.07,0 -0.15,-0.36 -0.25,-1.07 -0.07,0 -0.15,-0.41 -0.25,-1.22 -0.08,0 -0.16,-0.41 -0.25,-1.22 -0.08,0 -0.14,-0.39 -0.2,-1.17 -0.1,-0.08 -0.2,-0.6 -0.3,-1.57 -0.08,-0.12 -0.17,-0.66 -0.25,-1.62 -0.08,0 -0.16,-0.47 -0.25,-1.42 -0.09,0 -0.16,-0.54 -0.2,-1.62 -0.08,0 -0.19,-0.74 -0.3,-2.23 -0.1,-0.61 -0.24,-2.01 -0.41,-4.21 v -1.02 l -0.05,-1.73 c 0,-0.24 0.41,-0.41 1.22,-0.51 0,-0.07 0.34,-0.15 1.02,-0.25 0,-0.08 0.42,-0.16 1.27,-0.25 0,-0.08 0.42,-0.16 1.27,-0.25 0,-0.1 0.29,-0.15 0.86,-0.15 h 0.25 c 0.1,0.03 0.15,0.14 0.15,0.3 l 0.25,5.59 c 0.17,0.87 0.25,2.02 0.25,3.45 0.09,0.25 0.19,1.39 0.3,3.4 0.08,0 0.15,0.78 0.2,2.34 l 0.05,0.05 h 0.05 c 0.17,-0.47 0.27,-1.04 0.3,-1.73 0.17,-0.32 0.25,-0.74 0.25,-1.27 0.09,0 0.19,-0.39 0.3,-1.17 0.08,-0.15 0.17,-0.49 0.25,-1.02 l 0.71,-2.54 c 0.1,-0.19 0.2,-0.55 0.3,-1.07 0.09,0 0.16,-0.24 0.2,-0.71 0.14,-0.04 0.2,-0.25 0.2,-0.61 0.11,-0.08 0.23,-0.36 0.36,-0.86 l 0.81,-1.83 c 0.47,-0.21 1.26,-0.45 2.39,-0.71 l 0.96,-0.2 c 0,-0.08 0.49,-0.15 1.47,-0.2 0,-0.06 0.08,-0.09 0.25,-0.1 h 0.05 c 0.09,0 0.18,0.44 0.25,1.32 0.08,0 0.16,0.9 0.25,2.69 0.1,0.4 0.15,0.91 0.15,1.52 v 0.61 c 0,0.98 0.08,2.67 0.25,5.08 l -0.05,0.36 0.05,1.07 -0.05,1.02 0.15,0.1 0.56,-1.93 1.02,-3.4 0.25,-0.81 0.25,-0.91 c 0,-0.18 0.08,-0.47 0.25,-0.86 l 0.51,-1.93 0.66,-2.39 0.2,-0.91 c 0.08,0 0.16,-0.32 0.25,-0.96 0.08,0 0.14,-0.29 0.2,-0.86 l 0.15,-0.1 z"
         id="path152" />
      <path
         d="m 153.44,360.52 1.41,0.04 0.11,0.14 c -0.23,0.66 -0.37,1.26 -0.42,1.79 -0.06,0.18 -0.12,0.63 -0.18,1.37 l -0.04,0.04 c 0,0.14 -0.07,0.21 -0.21,0.21 v 0.04 l -0.11,-0.04 -2.43,0.04 h -0.35 c -1.69,0.08 -2.53,0.18 -2.53,0.28 l -0.18,2.43 0.14,0.04 c 1.15,-0.07 2.51,-0.12 4.08,-0.14 l 0.14,0.21 c 0,0.29 -0.07,0.82 -0.21,1.58 -0.05,1.1 -0.14,1.65 -0.28,1.65 h -0.07 c -1.14,0 -2.41,0.04 -3.83,0.11 l -0.11,0.04 -0.04,1.62 c 0,0.56 0.23,0.96 0.7,1.2 0.55,0.16 0.93,0.25 1.12,0.25 h 1.34 c 2.36,-0.12 3.8,-0.22 4.32,-0.32 h 0.11 l 0.04,0.04 v 0.11 c -0.12,0.17 -0.18,0.37 -0.18,0.6 -0.08,0 -0.13,0.18 -0.18,0.53 -0.05,0 -0.12,0.2 -0.21,0.6 -0.04,0 -0.09,0.22 -0.18,0.67 -0.05,0 -0.11,0.18 -0.18,0.53 l -0.14,0.32 c -0.96,0.14 -2.96,0.21 -6.01,0.21 -1.34,-0.02 -2,-0.09 -2,-0.21 -0.29,0 -0.49,-0.06 -0.6,-0.18 -0.29,-0.07 -0.63,-0.32 -1.02,-0.74 -0.25,-0.37 -0.41,-0.74 -0.49,-1.12 -0.08,0 -0.16,-0.8 -0.25,-2.39 v -0.35 l 0.04,-0.28 -0.04,-0.21 c 0.09,-4.14 0.26,-7.14 0.49,-9 v -0.49 c 0,-0.28 0.33,-0.43 0.98,-0.46 0.08,-0.09 0.39,-0.14 0.91,-0.14 0.15,-0.09 0.69,-0.17 1.62,-0.25 l 2.74,-0.28 2.14,-0.04 z"
         id="path154" />
      <path
         d="m 162.35,360.41 h 0.6 c 0.92,0 1.92,0.14 2.99,0.42 0,0.06 0.15,0.11 0.46,0.14 l 0.7,0.39 c 0.33,0.23 0.6,0.46 0.81,0.67 l 0.39,0.6 0.07,0.32 c 0.08,0 0.12,0.15 0.14,0.46 v 0.7 l -0.18,0.53 c 0,0.08 -0.06,0.22 -0.18,0.42 -0.36,0.61 -0.96,1.2 -1.79,1.76 l -0.63,0.42 0.04,0.04 h 0.32 c 0.85,0.12 1.52,0.26 2,0.42 0.05,0.05 0.2,0.11 0.46,0.18 0.71,0.42 1.12,0.8 1.23,1.12 0.21,0.16 0.38,0.64 0.49,1.44 v 0.21 c -0.14,0.95 -0.39,1.68 -0.74,2.18 -0.67,0.86 -1.28,1.43 -1.83,1.72 -0.54,0.36 -1.04,0.62 -1.48,0.77 0,0.07 -0.15,0.12 -0.46,0.14 -0.04,0.07 -0.21,0.15 -0.53,0.25 l -0.53,0.14 c 0,0 -0.19,0.11 -0.56,0.18 -0.08,0.07 -0.8,0.22 -2.18,0.46 l -1.41,0.18 h -2.36 c -0.45,0 -0.86,-0.08 -1.23,-0.25 0.16,-1.18 0.25,-1.97 0.25,-2.39 l -0.04,-0.04 v -0.04 c 0.09,-0.61 0.14,-1.34 0.14,-2.18 v -1.27 c 0,-1.22 -0.05,-2.09 -0.14,-2.6 l 0.04,-0.04 c 0,-0.72 -0.09,-1.94 -0.28,-3.66 -0.06,-0.12 -0.11,-0.46 -0.14,-1.02 -0.12,-0.25 -0.18,-0.54 -0.18,-0.88 -0.05,0 -0.1,-0.14 -0.14,-0.42 v -0.14 c 0.05,-0.11 0.33,-0.22 0.84,-0.35 0,-0.06 0.15,-0.11 0.46,-0.14 0,-0.06 0.26,-0.14 0.77,-0.25 l 1.58,-0.35 c 0.16,-0.05 0.9,-0.13 2.21,-0.25 z m -1.76,3.83 c 0.11,0.19 0.19,0.73 0.25,1.62 l 0.14,0.95 h 0.04 c 0.64,0 1.34,-0.18 2.07,-0.53 0.45,-0.24 0.76,-0.45 0.91,-0.63 0.16,-0.16 0.29,-0.38 0.39,-0.67 v -0.39 c 0,-0.28 -0.3,-0.52 -0.91,-0.74 l -0.35,-0.04 h -1.12 c -0.94,0.13 -1.41,0.28 -1.41,0.42 z m 0.53,6.15 v 1.09 l -0.07,0.88 0.04,0.14 -0.11,0.53 0.04,0.04 h 0.6 c 1.08,-0.23 1.81,-0.45 2.18,-0.67 0.37,-0.13 0.72,-0.33 1.05,-0.6 0.38,-0.28 0.62,-0.61 0.7,-0.98 l -0.04,-0.04 v -0.04 l 0.04,-0.14 c 0,-0.3 -0.48,-0.51 -1.44,-0.63 h -1.05 l -1.55,0.21 c -0.26,0.08 -0.39,0.15 -0.39,0.21 z"
         id="path156" />
      <path
         d="m 182.21,354.29 2.29,0.05 2.15,0.34 c 0,0 0.33,0.13 0.98,0.24 0,0.04 0.24,0.12 0.73,0.24 0,0.08 0.23,0.15 0.68,0.2 0.03,0.09 0.49,0.32 1.37,0.68 0.02,0.08 0.28,0.26 0.78,0.54 0,0.11 0.1,0.2 0.29,0.24 0,0.07 0.16,0.21 0.49,0.44 0.94,1.12 1.46,1.98 1.56,2.59 0.07,0.07 0.2,0.52 0.39,1.37 l 0.05,1.37 c 0,0.78 -0.1,1.6 -0.29,2.44 -0.35,1.19 -0.87,2.34 -1.56,3.47 -0.32,0.53 -0.58,0.89 -0.78,1.07 0,0.2 -0.78,1.08 -2.34,2.64 -0.55,0.5 -1.12,0.96 -1.71,1.37 -0.02,0.08 -0.26,0.24 -0.73,0.49 0,0.09 -0.13,0.15 -0.39,0.2 0,0.1 -0.33,0.31 -0.98,0.63 -0.26,0.08 -0.39,0.16 -0.39,0.24 -0.12,0 -0.35,0.1 -0.68,0.29 l -1.22,0.49 c -0.61,0.2 -1.03,0.29 -1.27,0.29 0,0.11 -0.42,0.2 -1.27,0.29 0,0.1 -0.23,0.15 -0.68,0.15 h -3.66 c -1.24,-0.06 -1.87,-0.2 -1.9,-0.44 0.13,-1.55 0.2,-2.82 0.2,-3.81 v -5.37 l -0.1,-6.15 -0.05,-0.05 h -0.05 l -2,0.54 -0.83,0.24 c 0,0.07 -0.08,0.12 -0.24,0.15 l -0.15,-0.15 c 0.13,-0.72 0.2,-1.25 0.2,-1.61 v -0.83 l -0.24,-2.59 c 0.28,-0.23 0.55,-0.34 0.83,-0.34 0,-0.1 0.23,-0.2 0.68,-0.29 0,-0.07 0.24,-0.15 0.73,-0.24 0.06,-0.07 0.59,-0.22 1.61,-0.44 0.11,-0.1 0.51,-0.2 1.22,-0.29 0,-0.11 0.37,-0.17 1.12,-0.2 0.08,-0.13 0.52,-0.2 1.32,-0.2 0.23,-0.1 0.68,-0.18 1.37,-0.24 l 2.49,-0.05 z m -2.83,5.66 c 0.06,0.07 0.11,0.34 0.15,0.83 l -0.05,0.05 0.05,0.24 v 8.59 l -0.05,1.46 h 0.05 c 1.07,-0.13 1.78,-0.28 2.15,-0.44 0.2,0 0.46,-0.08 0.78,-0.24 0.1,0 0.46,-0.16 1.07,-0.49 1.03,-0.5 2,-1.33 2.93,-2.49 0.49,-0.55 0.91,-1.4 1.27,-2.54 0,-0.42 0.03,-0.72 0.1,-0.93 0,-1.42 -0.37,-2.41 -1.12,-2.98 -0.4,-0.49 -1.13,-0.86 -2.2,-1.12 0,-0.06 -0.83,-0.18 -2.49,-0.34 -1.76,0.09 -2.64,0.22 -2.64,0.39 z"
         id="path158" />
      <path
         d="m 201.91,354.05 0.15,0.2 -0.15,8.59 0.05,0.05 h 0.63 c 1.43,-0.16 2.54,-0.24 3.32,-0.24 1.66,-0.09 2.49,-0.2 2.49,-0.34 v -1.66 l 0.15,-5.47 v -0.78 c 0,-0.18 0.06,-0.29 0.2,-0.34 l 2.93,0.05 c 1,0.07 1.68,0.18 2.05,0.34 l 0.05,4.98 v 1.12 c 0.16,5.38 0.31,8.52 0.44,9.42 l -0.05,0.05 v 0.05 l 0.34,5.22 v 0.39 l 0.05,0.29 c 0,0.18 -0.39,0.31 -1.17,0.39 -0.31,0 -0.99,0.1 -2.05,0.29 l -1.76,0.33 c -0.12,0.1 -0.25,0.15 -0.39,0.15 -0.26,0 -0.39,-0.22 -0.39,-0.67 l 0.05,-0.05 -0.29,-6.1 v -2.69 l -0.1,-0.29 -0.49,0.05 h -2.05 c -1.01,0 -1.97,0.08 -2.88,0.24 l -0.15,-0.05 -0.44,0.05 h -0.34 l -0.1,0.1 v 5.18 l 0.05,3.42 -0.2,0.1 -0.54,-0.05 -0.05,0.05 h -0.05 c -1.03,-0.16 -2.46,-0.24 -4.3,-0.24 h -0.44 l -0.15,-0.15 v -0.83 c 0.16,-1.26 0.28,-2.51 0.34,-3.76 l -0.05,-0.05 c 0.13,-0.79 0.2,-1.59 0.2,-2.39 v -0.68 l -0.05,-0.24 c -0.89,0.03 -1.46,0.1 -1.71,0.2 h -0.05 c -0.1,-0.03 -0.15,-0.13 -0.15,-0.29 v -0.44 c 0,-1.27 -0.08,-2.42 -0.24,-3.47 0,-0.29 0.52,-0.44 1.56,-0.44 0,-0.06 0.2,-0.1 0.59,-0.1 v -0.05 l 0.05,-0.2 -0.2,-8.25 -0.05,-0.2 c 0,-0.36 0.6,-0.54 1.81,-0.54 0,-0.14 1.17,-0.22 3.52,-0.24 z"
         id="path160" />
      <path
         d="m 232.13,354.01 0.05,0.05 0.49,-0.05 h 1.12 c 0.1,0 0.15,0.07 0.15,0.2 -0.33,1.28 -0.54,2.32 -0.63,3.12 -0.06,0 -0.11,0.49 -0.15,1.46 l -0.39,0.44 h -0.54 l -2.34,0.34 c 0,0.09 -0.41,0.15 -1.22,0.2 -0.42,0.13 -0.63,0.24 -0.63,0.34 l 0.05,0.05 v 0.05 c -0.2,0.62 -0.29,1.4 -0.29,2.34 -0.13,0.47 -0.28,2.29 -0.44,5.47 -0.2,2.68 -0.29,5.49 -0.29,8.45 -0.46,0.26 -1.03,0.39 -1.71,0.39 -0.39,0.16 -0.9,0.24 -1.51,0.24 -0.14,0.12 -0.74,0.2 -1.81,0.24 0,0.06 -0.34,0.12 -1.03,0.2 l -0.1,-0.2 0.29,-2.34 c 0.13,-0.55 0.2,-1.06 0.2,-1.51 0.16,-0.83 0.26,-1.74 0.29,-2.73 0.16,-0.45 0.24,-1.15 0.24,-2.1 0.29,-2.69 0.44,-4.58 0.44,-5.66 l 0.1,-1.32 -0.05,-0.15 0.15,-0.98 -0.05,-0.05 h -0.05 c 0,0.1 -0.54,0.18 -1.61,0.24 -0.11,0.13 -0.54,0.2 -1.27,0.2 -0.35,0.15 -0.85,0.27 -1.51,0.34 l -2.15,0.59 h -0.24 l -0.1,-0.1 v -0.1 c 0.13,-0.37 0.21,-0.91 0.24,-1.61 0.13,-0.35 0.21,-1.02 0.24,-2 0.16,-0.45 0.24,-1.16 0.24,-2.15 0.15,-0.29 0.68,-0.44 1.56,-0.44 0.54,-0.16 1.31,-0.26 2.29,-0.29 0,-0.1 0.73,-0.18 2.2,-0.24 0.5,-0.12 1.42,-0.22 2.78,-0.29 0.15,-0.08 1.01,-0.15 2.59,-0.2 0.33,-0.12 1.39,-0.2 3.17,-0.24 l 1.22,-0.2 z"
         id="path162" />
    </g>
  </g>
</svg>
